<svg xmlns="http://www.w3.org/2000/svg" data-name="Layer 1" viewBox="0 0 32 40" x="0px" y="0px"><path d="m12,23c-1.1,0-2,.9-2,2s.9,2,2,2,2-.9,2-2-.9-2-2-2Zm0,3c-.55,0-1-.45-1-1s.45-1,1-1,1,.45,1,1-.45,1-1,1Z"/><path d="m27.5,2H9.5c-1.38,0-2.5,1.12-2.5,2.5v2s.01.05.02.08c-2.94,1.19-5.02,4.06-5.02,7.42s2.08,6.23,5.02,7.42c0,.03-.02.05-.02.08v6c0,1.38,1.12,2.5,2.5,2.5h18c1.38,0,2.5-1.12,2.5-2.5V4.5c0-1.38-1.12-2.5-2.5-2.5ZM3,14c0-3.86,3.14-7,7-7s7,3.14,7,7c0,1.89-.75,3.6-1.97,4.86-.08.07-.17.13-.25.21-.04.04-.08.1-.12.14-1.24,1.11-2.87,1.79-4.66,1.79-3.86,0-7-3.14-7-7Zm13.6,5.28c.4,0,.78.16,1.06.44l4.17,4.17c.28.28.44.66.44,1.06s-.16.78-.5,1.12c-.58.58-1.54.58-2.12,0l-4.17-4.17c-.54-.54-.57-1.38-.08-2.01.12-.11.25-.23.36-.35.25-.17.53-.26.84-.26Zm12.4,8.22c0,.83-.67,1.5-1.5,1.5H9.5c-.83,0-1.5-.67-1.5-1.5v-5.76c.64.17,1.31.26,2,.26,1.48,0,2.86-.41,4.05-1.11.01.62.25,1.24.73,1.72l4.17,4.17c.48.48,1.11.72,1.75.72s1.32-.26,1.85-.78c.47-.47.73-1.1.73-1.77s-.26-1.29-.73-1.77l-4.17-4.17c-.44-.44-1.03-.68-1.63-.71.79-1.24,1.26-2.71,1.26-4.3,0-4.41-3.59-8-8-8-.69,0-1.36.1-2,.26v-1.76c0-.83.67-1.5,1.5-1.5h18c.83,0,1.5.67,1.5,1.5v23Z"/><path d="m16,14c0-3.31-2.69-6-6-6s-6,2.69-6,6,2.69,6,6,6,6-2.69,6-6Zm-11,0c0-2.76,2.24-5,5-5s5,2.24,5,5-2.24,5-5,5-5-2.24-5-5Z"/><path d="m25.5,5h-6c-.83,0-1.5.67-1.5,1.5s.67,1.5,1.5,1.5h6c.83,0,1.5-.67,1.5-1.5s-.67-1.5-1.5-1.5Zm0,2h-6c-.28,0-.5-.22-.5-.5s.22-.5.5-.5h6c.28,0,.5.22.5.5s-.22.5-.5.5Z"/><path d="m25.5,9h-4c-.83,0-1.5.67-1.5,1.5s.67,1.5,1.5,1.5h4c.83,0,1.5-.67,1.5-1.5s-.67-1.5-1.5-1.5Zm0,2h-4c-.28,0-.5-.22-.5-.5s.22-.5.5-.5h4c.28,0,.5.22.5.5s-.22.5-.5.5Z"/><path d="m25.5,13h-2c-.83,0-1.5.67-1.5,1.5s.67,1.5,1.5,1.5h2c.83,0,1.5-.67,1.5-1.5s-.67-1.5-1.5-1.5Zm0,2h-2c-.28,0-.5-.22-.5-.5s.22-.5.5-.5h2c.28,0,.5.22.5.5s-.22.5-.5.5Z"/><text x="0" y="47" fill="#000000" font-size="5px" font-weight="bold" font-family="'Helvetica Neue', Helvetica, Arial-Unicode, Arial, Sans-serif">Created by Dibyo</text><text x="0" y="52" fill="#000000" font-size="5px" font-weight="bold" font-family="'Helvetica Neue', Helvetica, Arial-Unicode, Arial, Sans-serif">from the Noun Project</text></svg>