<svg xmlns="http://www.w3.org/2000/svg" viewBox="0 0 72 90" x="0px" y="0px"><title>line</title><g data-name="Layer 25"><path d="M50,61H11a3.00328,3.00328,0,0,1-3-3V10a3.00328,3.00328,0,0,1,3-3H51a3.00328,3.00328,0,0,1,3,3V26a1,1,0,0,0,2,0V10a5.00588,5.00588,0,0,0-5-5H11a5.00588,5.00588,0,0,0-5,5V58a5.00588,5.00588,0,0,0,5,5H50a1,1,0,0,0,0-2Z"/><path d="M33,12H13a1,1,0,0,0,0,2H33a1,1,0,0,0,0-2Z"/><path d="M43,12H37a1,1,0,0,0,0,2h6a1,1,0,0,0,0-2Z"/><path d="M49,12H46a1,1,0,0,0,0,2h3a1,1,0,0,0,0-2Z"/><path d="M33,18H13a1,1,0,0,0,0,2H33a1,1,0,0,0,0-2Z"/><path d="M43,18H37a1,1,0,0,0,0,2h6a1,1,0,0,0,0-2Z"/><path d="M49,18H46a1,1,0,0,0,0,2h3a1,1,0,0,0,0-2Z"/><path d="M33,24H13a1,1,0,0,0,0,2H33a1,1,0,0,0,0-2Z"/><path d="M44,25a.99974.99974,0,0,0-1-1H37a1,1,0,0,0,0,2h6A.99974.99974,0,0,0,44,25Z"/><path d="M49,24H46a1,1,0,0,0,0,2h3a1,1,0,0,0,0-2Z"/><path d="M33,30H13a1,1,0,0,0,0,2H33a1,1,0,0,0,0-2Z"/><path d="M37,32h3a1,1,0,0,0,0-2H37a1,1,0,0,0,0,2Z"/><path d="M37,38h3a1,1,0,0,0,0-2H37a1,1,0,0,0,0,2Z"/><path d="M37,44h3a1,1,0,0,0,0-2H37a1,1,0,0,0,0,2Z"/><path d="M37,50h3a1,1,0,0,0,0-2H37a1,1,0,0,0,0,2Z"/><path d="M37,56h5a1,1,0,0,0,0-2H37a1,1,0,0,0,0,2Z"/><path d="M33,36H13a1,1,0,0,0,0,2H33a1,1,0,0,0,0-2Z"/><path d="M33,42H13a1,1,0,0,0,0,2H33a1,1,0,0,0,0-2Z"/><path d="M33,48H13a1,1,0,0,0,0,2H33a1,1,0,0,0,0-2Z"/><path d="M33,54H13a1,1,0,0,0,0,2H33a1,1,0,0,0,0-2Z"/><path d="M66,39A11,11,0,1,0,54,49.94934V66a.99974.99974,0,0,0,1,1h5a1,1,0,0,0,0-2H56V64h2a1,1,0,0,0,0-2H56V61h4a1,1,0,0,0,0-2H56V49.94934A11.01125,11.01125,0,0,0,66,39ZM46,39a9,9,0,1,1,10,8.941V46.93054a8,8,0,1,0-2,0V47.941A9.01043,9.01043,0,0,1,46,39Zm9,6a6,6,0,1,1,6-6A6.00657,6.00657,0,0,1,55,45Z"/></g><text x="0" y="87" fill="#000000" font-size="5px" font-weight="bold" font-family="'Helvetica Neue', Helvetica, Arial-Unicode, Arial, Sans-serif">Created by I Putu Dicky Adi Pranatha</text><text x="0" y="92" fill="#000000" font-size="5px" font-weight="bold" font-family="'Helvetica Neue', Helvetica, Arial-Unicode, Arial, Sans-serif">from the Noun Project</text></svg>