<svg xmlns="http://www.w3.org/2000/svg" viewBox="0 0 72 90" x="0px" y="0px"><title>line</title><g data-name="Layer 25"><path d="M58,13H53V10a5.00588,5.00588,0,0,0-5-5H14a5.00588,5.00588,0,0,0-5,5V54a5.00588,5.00588,0,0,0,5,5h5v3a5.00588,5.00588,0,0,0,5,5H58a5.00588,5.00588,0,0,0,5-5V18A5.00588,5.00588,0,0,0,58,13Zm3,49a3.00328,3.00328,0,0,1-3,3H24a3.00328,3.00328,0,0,1-3-3V59H44a1,1,0,0,0,0-2H14a3.00328,3.00328,0,0,1-3-3V10a3.00328,3.00328,0,0,1,3-3H48a3.00328,3.00328,0,0,1,3,3V50a1,1,0,0,0,2,0V15h5a3.00328,3.00328,0,0,1,3,3Z"/><path d="M34,31a1,1,0,0,0,0-2A11.01245,11.01245,0,0,0,23,40a1,1,0,0,0,2,0A9.01016,9.01016,0,0,1,34,31Z"/><path d="M46.22235,46.80829a14.026,14.026,0,1,0-5.41406,5.41406l8.6546,8.6546A3.85507,3.85507,0,0,0,52.16992,62,3.83434,3.83434,0,0,0,56,58.16992a3.85421,3.85421,0,0,0-1.123-2.707ZM22,40A12,12,0,1,1,34,52,12.01343,12.01343,0,0,1,22,40ZM53.46289,59.46338a1.8799,1.8799,0,0,1-2.58594-.00049L42.5072,51.09314a14.09794,14.09794,0,0,0,2.58594-2.58594L53.46289,56.877A1.83981,1.83981,0,0,1,54,58.16992,1.81873,1.81873,0,0,1,53.46289,59.46338Z"/><path d="M31,34a.99974.99974,0,0,0,1,1h6a1,1,0,0,0,0-2H32A.99974.99974,0,0,0,31,34Z"/><path d="M27,38a.99974.99974,0,0,0,1,1H43a1,1,0,0,0,0-2H28A.99974.99974,0,0,0,27,38Z"/><path d="M43,43a1,1,0,0,0,0-2H27a1,1,0,0,0,0,2Z"/><path d="M41,45H28a1,1,0,0,0,0,2H41a1,1,0,0,0,0-2Z"/></g><text x="0" y="87" fill="#000000" font-size="5px" font-weight="bold" font-family="'Helvetica Neue', Helvetica, Arial-Unicode, Arial, Sans-serif">Created by I Putu Dicky Adi Pranatha</text><text x="0" y="92" fill="#000000" font-size="5px" font-weight="bold" font-family="'Helvetica Neue', Helvetica, Arial-Unicode, Arial, Sans-serif">from the Noun Project</text></svg>