<svg xmlns="http://www.w3.org/2000/svg" xmlns:xlink="http://www.w3.org/1999/xlink" version="1.1" x="0px" y="0px" viewBox="0 0 64 80" style="enable-background:new 0 0 64 64;" xml:space="preserve"><g><g><g><path d="M27.29,29.55H0.49C0.22,29.55,0,29.33,0,29.05V2.25c0-0.27,0.22-0.49,0.49-0.49h26.8c0.27,0,0.49,0.22,0.49,0.49v26.8     C27.78,29.33,27.56,29.55,27.29,29.55z M0.98,28.56H26.8V2.75H0.98V28.56z"/></g><g><g><path d="M5.85,24.19c-0.07,0-0.15-0.02-0.22-0.05c-0.24-0.12-0.35-0.41-0.23-0.66l7.86-16.09c0.08-0.17,0.25-0.27,0.44-0.28      c0.21-0.01,0.36,0.1,0.44,0.27l8.23,16.09c0.12,0.24,0.03,0.54-0.21,0.66c-0.24,0.12-0.54,0.03-0.66-0.21L13.72,8.71L6.29,23.92      C6.2,24.09,6.03,24.19,5.85,24.19z"/></g><g><path d="M20.02,20.45H7.68c-0.27,0-0.49-0.22-0.49-0.49c0-0.27,0.22-0.49,0.49-0.49h12.34c0.27,0,0.49,0.22,0.49,0.49      C20.51,20.23,20.29,20.45,20.02,20.45z"/></g></g></g><g><g><path d="M63.51,29.55h-26.8c-0.27,0-0.49-0.22-0.49-0.49V2.25c0-0.27,0.22-0.49,0.49-0.49h26.8c0.27,0,0.49,0.22,0.49,0.49v26.8     C64,29.33,63.78,29.55,63.51,29.55z M37.2,28.56h25.81V2.75H37.2V28.56z"/></g><g><g><g><g><path d="M48.29,24.19c-1.61,0-2.72-0.12-3.24-0.19c-0.24-0.03-0.42-0.24-0.42-0.49V7.94c0-0.23,0.16-0.43,0.39-0.48        c1-0.21,2.47-0.34,3.84-0.34c2.14,0,3.58,0.39,4.66,1.26c0.97,0.72,1.5,1.83,1.5,3.18c0,1.4-0.74,2.65-1.98,3.44        c1.34,0.67,2.57,1.99,2.57,4.05c0,1.38-0.5,2.57-1.49,3.52C52.91,23.67,51.01,24.19,48.29,24.19z M45.61,23.08        c0.58,0.06,1.48,0.13,2.68,0.13c2.47,0,4.15-0.44,5.14-1.35c0.78-0.76,1.18-1.7,1.18-2.81c0-2.04-1.49-3.14-2.89-3.49        c-0.22-0.05-0.37-0.25-0.37-0.48c0-0.21,0.13-0.44,0.32-0.51c1.45-0.53,2.35-1.69,2.35-3.02c0-1.04-0.38-1.85-1.12-2.4        c-0.92-0.74-2.13-1.06-4.05-1.06c-1.13,0-2.33,0.09-3.24,0.25V23.08z"/></g></g><g><g><path d="M48.29,24.19c-1.61,0-2.72-0.12-3.24-0.19c-0.24-0.03-0.42-0.24-0.42-0.49V7.94c0-0.23,0.16-0.43,0.39-0.48        c1-0.21,2.47-0.34,3.84-0.34c2.14,0,3.58,0.39,4.66,1.26c0.97,0.72,1.5,1.83,1.5,3.18c0,1.4-0.74,2.65-1.98,3.44        c1.34,0.67,2.57,1.99,2.57,4.05c0,1.38-0.5,2.57-1.49,3.52C52.91,23.67,51.01,24.19,48.29,24.19z M45.61,23.08        c0.58,0.06,1.48,0.13,2.68,0.13c2.47,0,4.15-0.44,5.14-1.35c0.78-0.76,1.18-1.7,1.18-2.81c0-2.04-1.49-3.14-2.89-3.49        c-0.22-0.05-0.37-0.25-0.37-0.48c0-0.21,0.13-0.44,0.32-0.51c1.45-0.53,2.35-1.69,2.35-3.02c0-1.04-0.38-1.85-1.12-2.4        c-0.92-0.74-2.13-1.06-4.05-1.06c-1.13,0-2.33,0.09-3.24,0.25V23.08z"/></g></g></g><g><path d="M51.84,15.52h-6.72c-0.27,0-0.49-0.22-0.49-0.49c0-0.27,0.22-0.49,0.49-0.49h6.72c0.27,0,0.49,0.22,0.49,0.49      C52.33,15.3,52.11,15.52,51.84,15.52z"/></g></g></g><g><g><path d="M27.29,62.24H0.49C0.22,62.24,0,62.02,0,61.75v-26.8c0-0.27,0.22-0.49,0.49-0.49h26.8c0.27,0,0.49,0.22,0.49,0.49v26.8     C27.78,62.02,27.56,62.24,27.29,62.24z M0.98,61.25H26.8V35.44H0.98V61.25z"/></g><g><path d="M16.09,56.89c-4.71,0-8.54-3.83-8.54-8.54c0-4.71,3.83-8.54,8.54-8.54c1.32,0,2.58,0.3,3.86,0.92     c0.25,0.12,0.35,0.41,0.23,0.66c-0.12,0.25-0.42,0.35-0.66,0.23c-1.15-0.55-2.27-0.82-3.44-0.82c-4.17,0-7.55,3.39-7.55,7.55     c0,4.17,3.39,7.56,7.55,7.56c1.16,0,2.29-0.27,3.44-0.82c0.24-0.12,0.54-0.01,0.66,0.23c0.12,0.24,0.02,0.54-0.23,0.66     C18.67,56.58,17.4,56.89,16.09,56.89z"/></g></g><g><g><path d="M63.51,62.24h-26.8c-0.27,0-0.49-0.22-0.49-0.49v-26.8c0-0.27,0.22-0.49,0.49-0.49h26.8c0.27,0,0.49,0.22,0.49,0.49v26.8     C64,62.02,63.78,62.24,63.51,62.24z M37.2,61.25h25.81V35.44H37.2V61.25z"/></g><g><path d="M49.07,56.89H43.1c-0.27,0-0.49-0.22-0.49-0.49V40.3c0-0.27,0.22-0.49,0.49-0.49h5.97c4.71,0,8.54,3.83,8.54,8.54     C57.61,53.06,53.78,56.89,49.07,56.89z M43.59,55.9h5.48c4.17,0,7.55-3.39,7.55-7.55c0-4.17-3.39-7.55-7.55-7.55h-5.48V55.9z"/></g></g></g><text x="0" y="79" fill="#000000" font-size="5px" font-weight="bold" font-family="'Helvetica Neue', Helvetica, Arial-Unicode, Arial, Sans-serif">Created by Rank Sol</text><text x="0" y="84" fill="#000000" font-size="5px" font-weight="bold" font-family="'Helvetica Neue', Helvetica, Arial-Unicode, Arial, Sans-serif">from the Noun Project</text></svg>