<svg xmlns="http://www.w3.org/2000/svg" data-name="Layer 1" viewBox="0 0 95 118.75" x="0px" y="0px"><defs><style>.cls-1{fill-rule:evenodd;}</style></defs><title>a</title><path class="cls-1" d="M9.523,38.306H20.555a1.675,1.675,0,0,1,1.187.494l0,0a1.678,1.678,0,0,1,.5,1.188V80.149a1.676,1.676,0,0,1-.5,1.187l0,0a1.676,1.676,0,0,1-1.187.495H9.523a1.68,1.68,0,0,1-1.188-.495l0,0a1.675,1.675,0,0,1-.494-1.187V39.992A1.678,1.678,0,0,1,8.331,38.8l.005,0a1.675,1.675,0,0,1,1.187-.494Zm11.545-9.442A6.576,6.576,0,1,0,19.683,30.9q.129-.129.252-.267l10.716,6.853a6.569,6.569,0,1,0,11.141-1.514L54.771,21.51a6.57,6.57,0,0,0,8.193-.882,6.425,6.425,0,0,0,.449-.5l10.405,6a6.577,6.577,0,1,0,1.5-2.315,6.4,6.4,0,0,0-.449.5l-10.4-5.995a6.569,6.569,0,1,0-11.255,1.795L40.229,34.567a6.568,6.568,0,0,0-8.193.883c-.087.086-.171.175-.252.266L21.068,28.864ZM83.114,25.3A4.459,4.459,0,1,1,79.961,24,4.447,4.447,0,0,1,83.114,25.3ZM61.473,12.831a4.458,4.458,0,1,1-3.153-1.306,4.444,4.444,0,0,1,3.153,1.306ZM39.832,36.941a4.458,4.458,0,1,1-3.152-1.306,4.445,4.445,0,0,1,3.152,1.306ZM18.192,23.1a4.461,4.461,0,1,1-3.153-1.3,4.449,4.449,0,0,1,3.153,1.3ZM91.445,83.475a1.055,1.055,0,1,1,0,2.109H3.555a1.055,1.055,0,1,1,0-2.109Zm-17-43.809H85.477a1.679,1.679,0,0,1,1.188.494l0,.005a1.675,1.675,0,0,1,.494,1.187v38.8a1.675,1.675,0,0,1-.494,1.187l0,0a1.68,1.68,0,0,1-1.188.495H74.445a1.676,1.676,0,0,1-1.187-.495l0,0a1.676,1.676,0,0,1-.5-1.187v-38.8a1.68,1.68,0,0,1,.5-1.188l0,0a1.675,1.675,0,0,1,1.187-.494Zm10.609,2.109v37.95H74.869V41.775ZM52.8,28.956H63.836a1.687,1.687,0,0,1,1.686,1.686V80.149a1.688,1.688,0,0,1-1.686,1.686H52.8a1.69,1.69,0,0,1-1.686-1.686V30.642A1.688,1.688,0,0,1,52.8,28.956Zm10.609,2.109v48.66H53.228V31.065ZM31.164,50.376H42.2a1.675,1.675,0,0,1,1.187.494l0,.005a1.676,1.676,0,0,1,.495,1.187V80.149a1.676,1.676,0,0,1-.495,1.187l0,0a1.676,1.676,0,0,1-1.187.495H31.164a1.68,1.68,0,0,1-1.188-.495l0,0a1.675,1.675,0,0,1-.494-1.187V52.062a1.679,1.679,0,0,1,.494-1.188l0,0a1.679,1.679,0,0,1,1.188-.494Zm10.608,2.109H31.587v27.24H41.772V52.485Zm-21.64-12.07H9.946v39.31H20.132Z"/><text x="0" y="110" fill="#000000" font-size="5px" font-weight="bold" font-family="'Helvetica Neue', Helvetica, Arial-Unicode, Arial, Sans-serif">Created by Nasikun</text><text x="0" y="115" fill="#000000" font-size="5px" font-weight="bold" font-family="'Helvetica Neue', Helvetica, Arial-Unicode, Arial, Sans-serif">from the Noun Project</text></svg>